<svg xmlns="http://www.w3.org/2000/svg" width="60" height="60" viewBox="0 0 24 24"><path fill="#000000" d="M21.525 12.247c-.34-3.235-1.847-4.747-3.051-5.447a5.7 5.7 0 0 0-1.684-.628c-.992-3-3.388-4.3-5.383-4.165a5.68 5.68 0 0 0-3.874 2.051a5.9 5.9 0 0 0-.886 4.3l-3.268.532a1.108 1.108 0 0 0 .356 2.188l6.058-.987a1.108 1.108 0 1 0-.356-2.187l-.609.1a3.8 3.8 0 0 1 .5-2.743a3.3 3.3 0 0 1 2.237-1.04A3.26 3.26 0 0 1 14.3 6.1a10.5 10.5 0 0 0-1.991.46a1.11 1.11 0 0 0 .716 2.1a5.3 5.3 0 0 1 4.338.062c1.1.64 1.763 1.9 1.958 3.758a4.27 4.27 0 0 1-1.039 2.961a5.2 5.2 0 0 1-3.539 1.526c-.653 1.414-2.312 2.9-3.372 2.812a2.7 2.7 0 0 1-1.826-1.171a4.4 4.4 0 0 1-.834-2.568l.724.119A1.11 1.11 0 0 0 9.8 13.97l-6.058-1a1.109 1.109 0 0 0-.362 2.188l3.124.516a6.66 6.66 0 0 0 1.264 4.255a4.84 4.84 0 0 0 3.445 2.062q.14.01.283.01a5.58 5.58 0 0 0 4.655-3.238l.015.019c1.946-.187 2.623-.453 3.836-1.938a6.44 6.44 0 0 0 1.523-4.597"/></svg>